<svg height="77" viewBox="0 0 314 77" width="314" xmlns="http://www.w3.org/2000/svg" xmlns:xlink="http://www.w3.org/1999/xlink"><mask id="a" fill="#fff"><path d="m0 .544h312.65v76.396h-312.65z" fill="#fff" fill-rule="evenodd"/></mask><g fill="none" fill-rule="evenodd" transform="translate(.5)"><path d="m38.189 75.559-36.923-36.925 36.923-36.923 36.924 36.925z" fill="#fffffe"/><g fill="#1a1919"><path d="m99.989 41.245c-2.027 0-4.294-.475-5.807-1.19l-1.033 1.311h-1.234l-.477-8.713 1.192-.077c2.31 5.649 4.338 7.358 7.638 7.358 2.906 0 4.855-1.83 4.855-4.654 0-2.426-1.115-3.899-4.812-5.45-1.274-.554-2.388-.953-3.622-1.548-2.825-1.393-4.377-3.224-4.377-6.365 0-4.615 3.742-7.2 7.519-7.2 2.031 0 3.381.475 4.576 1.191l1.033-1.311h1.234l.674 7.637-1.231.078c-2.19-4.732-3.899-6.284-6.643-6.284-2.189 0-3.861 1.552-3.861 4.059 0 2.267 1.076 3.656 3.861 4.852 1.393.596 2.704 1.114 4.175 1.829 3.223 1.551 4.774 3.501 4.774 6.524 0 5.369-4.534 7.953-8.434 7.953"/><path d="m120.056 31.779c-4.894.08-7.042 1.752-7.042 4.058 0 1.792 1.034 2.824 2.786 2.824 1.153 0 2.705-.595 4.256-1.71zm3.3 5.888c0 1.153.677 1.671 3.304 1.513l.117.716c-.755.514-2.744 1.191-4.175 1.191-1.512 0-2.267-.754-2.387-2.862l-.356-.081c-1.911 1.911-3.741 2.943-5.73 2.943-2.704 0-4.376-1.709-4.376-4.136 0-3.78 4.257-5.966 10.303-6.484v-2.185c0-3.146-1.273-4.14-4.06-4.14-1.349 0-2.227.36-2.942.757.835.515 1.473 1.312 1.473 2.109 0 1.193-.916 1.99-2.07 1.99-1.233 0-2.108-.797-2.108-2.031 0-2.783 4.218-4.733 7.997-4.733 3.42 0 5.01 1.672 5.01 5.25z"/><path d="m132.714 12.489c1.434 0 2.429 1.114 2.429 2.426 0 1.352-1.076 2.704-2.666 2.704-1.393 0-2.387-1.073-2.387-2.465 0-1.315 1.072-2.665 2.624-2.665zm-4.454 12.013v-.917l6.004-1.432.162.12v16.547l2.664.756v1.073h-8.869v-1.073l2.824-.756v-13.007z"/><path d="m156.173 38.819 2.825.756v1.074h-8.91v-1.073l2.704-.756v-9.665c0-2.824-1.114-4.375-3.54-4.375-1.591 0-2.983.715-4.614 1.83v12.21l2.664.756v1.073h-8.871v-1.073l2.824-.756v-13.007l-2.782-1.311v-.917l5.766-1.432.358.318-.278 2.986.356.078c2.388-2.229 4.338-3.343 6.485-3.343 3.262 0 5.013 2.189 5.013 5.532z"/><path d="m165.183 40.968c-2.628 0-4.019-1.51-4.019-4.655v-11.455h-2.984v-1.072l3.301-1.553 1.792-4.734h1.234v5.133h6.046v2.226h-6.046v10.225c0 1.471.157 2.345.993 2.902.515.358 1.192.478 2.585.478.638 0 1.551-.081 2.546-.238l.039.912c-1.751 1.075-3.66 1.831-5.487 1.831"/><path d="m214.081 39.416v1.233h-12.528v-1.233l4.338-.755v-21.042h-.48l-9.15 23.03h-1.826l-9.029-23.03h-.48v20.684l3.539 1.113v1.233h-9.107v-1.233l3.541-1.113v-20.924l-3.541-.833v-1.233h9.347l1.513 4.097 5.928 15.789h.596l5.965-15.789 1.513-4.097h9.861v1.233l-4.333.756v21.359z"/><path d="m225.051 31.779c-4.894.08-7.042 1.752-7.042 4.058 0 1.792 1.033 2.824 2.786 2.824 1.153 0 2.704-.595 4.256-1.71zm3.3 5.888c0 1.152.676 1.671 3.304 1.513l.117.716c-.755.514-2.745 1.191-4.176 1.191-1.512 0-2.267-.754-2.387-2.862l-.356-.082c-1.911 1.912-3.74 2.944-5.73 2.944-2.704 0-4.376-1.709-4.376-4.136 0-3.78 4.257-5.966 10.304-6.484v-2.185c0-3.146-1.273-4.14-4.058-4.14-1.351 0-2.23.359-2.945.757.836.515 1.473 1.312 1.473 2.109 0 1.193-.915 1.989-2.07 1.989-1.233 0-2.107-.796-2.107-2.031 0-2.782 4.218-4.733 7.996-4.733 3.421 0 5.011 1.673 5.011 5.251z"/><path d="m245.11 27.245c-1.553 0-2.269-1.231-2.071-2.547-1.311-.119-2.902 1.355-3.819 3.065v11.056l2.945.756v1.074h-9.151v-1.074l2.825-.756v-13.006l-2.783-1.312v-.916l5.767-1.432.359.318-.317 3.461.395.121c1.592-2.507 3.145-3.861 5.133-3.861 1.71 0 2.863 1.114 2.863 2.588 0 1.509-1.034 2.465-2.146 2.465"/><path d="m255.618 40.968c-2.625 0-4.018-1.51-4.018-4.655v-11.455h-2.984v-1.072l3.3-1.553 1.792-4.734h1.234v5.133h6.047v2.226h-6.047v10.225c0 1.471.158 2.345.995 2.902.515.358 1.191.478 2.584.478.638 0 1.552-.081 2.545-.238l.04.912c-1.75 1.075-3.656 1.831-5.488 1.831"/><path d="m267.395 12.489c1.434 0 2.43 1.114 2.43 2.426 0 1.352-1.076 2.704-2.665 2.704-1.394 0-2.387-1.073-2.387-2.465 0-1.315 1.071-2.665 2.622-2.665zm-4.453 12.012v-.916l6.005-1.432.162.12v16.546l2.662.756v1.074h-8.869v-1.074l2.825-.756v-13.006z"/><path d="m291.946 38.819 2.824.756v1.074h-8.91v-1.074l2.705-.756v-9.664c0-2.824-1.114-4.375-3.54-4.375-1.592 0-2.984.715-4.616 1.83v12.209l2.665.756v1.074h-8.871v-1.074l2.824-.756v-13.006l-2.782-1.312v-.916l5.765-1.432.359.318-.279 2.986.358.078c2.387-2.229 4.336-3.343 6.484-3.343 3.261 0 5.014 2.189 5.014 5.532z"/><path d="m294.948 25.773-.717-.796c2.387-1.83 3.856-3.938 4.136-5.768l-.237-.117-.08.039c-.279.159-.557.197-.956.197-1.034 0-1.787-.874-1.787-2.108 0-1.35 1.071-2.503 2.464-2.503 1.749 0 2.824 1.311 2.824 3.181 0 3.141-2.306 5.807-5.647 7.875"/><path d="m305.321 41.125c-2.148 0-3.977-.315-5.966-1.07v-5.015l1.153-.12c1.272 3.583 2.902 4.816 5.408 4.816 2.109 0 3.54-1.075 3.54-3.063 0-1.552-1.033-2.427-4.336-3.7-3.42-1.272-5.486-2.545-5.486-5.369 0-2.982 2.585-5.451 6.442-5.451 2.147 0 4.057.398 5.21.836l.122 4.414-1.035.24c-1.512-3.104-2.866-4.097-4.932-4.097-1.791 0-3.064 1.152-3.064 2.545 0 1.513 1.033 2.349 4.016 3.463 4.376 1.629 6.008 2.941 6.008 5.726 0 3.579-3.022 5.845-7.08 5.845"/><path d="m101.758 51.138 2.018.634v7.829c0 2.549-1.392 4.132-3.634 4.132-2.741 0-4.018-1.298-4.018-4.087v-8.06l2.473-.43v-1.025h-7.335v1.023l2.243.43v8.402c0 3.483 2.068 5.323 5.98 5.323 3.468 0 5.799-2.247 5.799-5.594v-7.943l2.018-.634v-1.007h-5.544z"/><path d="m127.812 51.143 2.246.633v8.737l-7.306-10.382h-5.005v1.054l2.018.612v11.484l-2.018.635v1.008h5.793v-1.012l-2.244-.635v-10.709l7.205 10.103 1.686 2.389h1.402v-13.288l2.018-.634v-1.007h-5.795z"/><path d="m144.075 51.158 2.559.43v11.878l-2.559.431v1.027h7.673v-1.027l-2.538-.431v-11.879l2.538-.43v-1.026h-7.673z"/><path d="m172.008 51.133 1.736.615-3.737 9.76-3.729-9.936 2.226-.418v-1.023h-7.083v1.014l2.084.554 5.317 13.36h1.238l5.272-13.276 1.947-.647v-1.005h-5.271z"/><path d="m197.616 62.563c-.531.784-.848.921-2.123.921h-3.86v-5.36h1.162c1.296 0 1.693.344 2.121 1.843l.24.83h.877v-6.678h-.879l-.239.879c-.425 1.568-.88 1.819-2.12 1.819h-1.162v-5.271h2.818c1.364 0 1.649.189 2.379 1.07l1.533 1.887.678-.249-.584-4.123h-11.869v1.025l2.472.43v11.881l-2.472.43v1.026h12.845l.656-4.691-.728-.147z"/><path d="m215.354 51.472c.417-.072.87-.106 1.411-.106 1.502 0 3.293.477 3.293 2.748 0 1.873-1.169 2.906-3.293 2.906h-1.411zm7.588 11.563c-.402-.401-.844-1.293-1.313-2.236-.115-.233-.234-.471-.356-.713-.592-1.133-1.486-1.96-2.53-2.343 2.708-.588 4.138-1.879 4.138-3.741 0-2.424-2.118-3.871-5.664-3.871h-6.909v1.025l2.471.43v11.881l-2.471.43v1.026h7.403v-1.026l-2.357-.429v-5.141h.618c1.195 0 1.697.215 2.312 1.487l1.269 2.608c.878 1.777 1.426 2.501 3.333 2.501h2.398v-1.015l-.157-.016c-1.263-.139-1.726-.398-2.185-.857z"/><path d="m242.191 56.676c-.628-.306-1.219-.554-1.79-.793l-.597-.251c-1.506-.649-2.092-1.378-2.092-2.606 0-1.277.813-2.135 2.023-2.135 1.508 0 2.424.878 3.626 3.477l.049.111 1.003-.065-.413-4.691h-.95l-.547.693c-.774-.433-1.572-.626-2.565-.626-2.162 0-4.46 1.499-4.46 4.278 0 1.735.8 2.902 2.593 3.786.443.216.859.386 1.289.56.253.105.51.209.784.327 2.214.931 2.634 1.753 2.634 2.946 0 1.503-1.017 2.475-2.589 2.475-1.864 0-2.96-1.068-4.19-4.083l-.048-.117-.981.064.291 5.307h.955l.556-.707c.892.39 2.151.638 3.257.638 2.415 0 4.983-1.652 4.983-4.711 0-1.741-.87-2.938-2.821-3.877"/><path d="m255.884 51.158 2.563.43v11.878l-2.563.43v1.027h7.676v-1.027l-2.541-.43v-11.879l2.541-.43v-1.026h-7.676z"/><path d="m274.781 50.131-.849 4.558.724.223 1.299-1.851c.944-1.317 1.354-1.583 2.44-1.583h1.503v11.987l-2.63.431v1.027h7.833v-1.027l-2.632-.431v-11.987h1.345c1.099 0 1.487.251 2.44 1.582l1.298 1.85.748-.219-.873-4.56z"/><path d="m307.105 50.131v1.011l1.9.54-3.378 5.585-3.482-5.726 1.956-.388v-1.022h-6.925v1.015l2.104.538 4.492 7.105v4.677l-2.628.43v1.027h7.833v-1.027l-2.631-.431v-5.058l4.381-6.617 1.923-.655v-1.004z" mask="url(#a)"/></g><path d="m38.173 74.708-36.056-36.062 36.056-36.054 36.059 36.056zm.054-74.164-38.227 38.226 38.227 38.23 38.231-38.229z" fill="#bb1f3e" mask="url(#a)"/><path d="m59.781 40.505c-.996.938-2.253 1.68-3.759 2.221v-2.221zm-3.759-3.674v-2.164c1.508.53 2.764 1.255 3.752 2.164zm4.034.272c.474.478.904.986 1.235 1.556-.336.578-.765 1.093-1.234 1.576h-4.035v-3.132zm-4.319 3.402v2.314c-1.666.559-3.617.875-5.831.945v-3.259zm-5.831-3.674v-3.191c2.215.068 4.168.384 5.831.932v2.259zm0 3.405h5.831v-3.133h-5.831zm-1.826 4.584h-3.324v-.343h3.927c4.906.048 10.727-1.001 13.343-5.687v-.174c-2.616-4.688-8.442-5.742-13.351-5.691h-3.853v-.481h3.256c7.448-.077 12.306 2.063 14.639 6.163-2.372 4.167-7.216 6.292-14.637 6.213zm-3.324-4.155h.066v-.16h4.806v3.266c-.317.007-.617.03-.945.026h-3.927zm.066-.429h4.806v-3.133h-4.806zm0-6.63h3.861c.328-.003.628.019.945.026v3.199h-4.806zm-.405-1.573h-.418v-3.394c.052-4.915-1-10.749-5.7-13.377h-.176c-4.696 2.628-5.752 8.462-5.702 13.38v3.321h-.414v-2.719c-.078-7.464 2.07-12.329 6.182-14.67 4.174 2.376 6.302 7.232 6.228 14.67zm-11.355 17.63c-.006-.316-.029-.617-.026-.943v-3.501h3.299v4.444zm3.273 6.363v3.748c-.94-.991-1.685-2.247-2.225-3.748zm-2.321-.283c-.558-1.657-.876-3.597-.943-5.802h3.264v5.802zm2.594-6.08v-4.444h.071v.012h3.067v4.432zm3.138 6.363v4.015c-.481.475-.991.903-1.564 1.234-.578-.332-1.091-.757-1.574-1.224v-4.025zm-3.138-.283h3.139v-5.802h-3.139zm3.41-6.08v-4.432h3.23v3.487c.004.328-.019.629-.025.945zm2.169 6.363c-.531 1.501-1.258 2.753-2.169 3.739v-3.739zm-2.169-.283v-5.802h3.196c-.067 2.205-.383 4.145-.931 5.802zm3.272-28.053c.007.319.029.62.026.949v3.394h-3.295v-4.343zm-3.269-6.406v-3.767c.938.999 1.682 2.259 2.223 3.767zm2.317.286c.558 1.669.876 3.623.945 5.84h-3.262v-5.84zm-2.592 6.12v4.343h-.073v-.07h-3.063v-4.273zm-3.136-6.406v-4.042c.48-.476.99-.908 1.561-1.241.578.336 1.092.765 1.575 1.234v4.049zm0 6.126h3.137v-5.84h-3.137zm-2.393 9.564c-.316.647.128.861.854.89l2.44-.004-.002-2.435c-.029-.726-.244-1.169-.891-.849.037-.772.51-1.039.93-.772.194-.635.435-1.009.729-1.12.367.146.531.518.65 1.12.525-.241 1.045 0 1.006.772-.599-.236-.886-.005-.917.888v2.404h2.428c.727-.026 1.167-.24.852-.89.769.041 1.033.512.769.933.637.191 1.011.433 1.12.727-.148.367-.521.533-1.12.651.241.522 0 1.044-.769 1.006.235-.599.002-.884-.889-.921h-2.387v2.386c.034.897.32 1.128.919.893.041.767-.484 1.008-1.006.767-.119.602-.284.975-.653 1.123-.288-.112-.535-.485-.729-1.123-.416.267-.888 0-.926-.767.646.314.862-.126.891-.852l.006-2.437-2.411.005c-.897.039-1.128.324-.894.922-.766.04-1.007-.484-.766-1.007-.599-.119-.975-.287-1.124-.651.112-.292.486-.535 1.124-.73-.266-.418.004-.89.766-.929zm2.119-9.284v4.273h-3.233v-3.324c-.003-.329.021-.63.027-.949zm-2.169-6.406c.532-1.511 1.259-2.769 2.169-3.76v3.76zm2.169.286v5.84h-3.198c.069-2.219.385-4.173.934-5.84zm8.012 26.547c.078 7.418-2.071 12.254-6.182 14.573-4.174-2.355-6.307-7.18-6.228-14.57v-2.901h.413v3.499c-.046 4.886 1.001 10.678 5.702 13.291h.174c4.7-2.613 5.759-8.407 5.707-13.294v-3.484h.414zm-27.751-11.201c.995-.94 2.252-1.685 3.756-2.228v2.228zm3.756 3.691v2.174c-1.506-.532-2.761-1.259-3.75-2.174zm-4.031-.272c-.474-.481-.906-.992-1.236-1.565.335-.581.763-1.095 1.231-1.581h4.036v3.146zm4.315-3.419v-2.322c1.664-.559 3.61-.877 5.821-.947v3.269zm5.821 3.691v3.205c-2.211-.069-4.159-.385-5.821-.936v-2.269zm-5.821-.272h5.821v-3.146h-5.821zm10.961-7.405h-3.916c-4.9-.049-10.712 1.004-13.329 5.714v.172c2.617 4.708 8.433 5.765 13.334 5.714h3.842v.281h-3.245c-7.435.074-12.287-2.076-14.619-6.195 2.365-4.186 7.207-6.317 14.619-6.241h3.314zm0 3.838h-.069v.148h-4.79v-3.276c.316-.007.614-.03.941-.027h3.918zm-4.859 3.567h4.79v-3.146h-4.79zm4.79 3.511h-3.847c-.327.005-.627-.019-.943-.026v-3.213h4.79zm16.546-11.813h-3.253v-2.789c.061-5.755-1.14-12.083-6.558-15.111h-.105c-5.414 3.028-6.621 9.358-6.561 15.113v2.717h-3.314c-5.735-.055-12.046 1.15-15.06 6.574v.109c3.014 5.426 9.327 6.635 15.067 6.573h3.238v2.898c-.063 5.719 1.144 12.008 6.56 15.019h.109c5.413-3.011 6.618-9.303 6.558-15.022v-2.883h3.322c5.742.057 12.061-1.143 15.078-6.544v-.103c-3.017-5.405-9.336-6.61-15.081-6.551z" fill="#bb1f3e"/><path d="m53.23 49.339c-2.314 0-4.449-.74-6.2-1.985 1.178 1.72 1.87 3.799 1.87 6.043 0 5.914-4.796 10.707-10.709 10.707-5.915 0-10.71-4.793-10.71-10.707 0-2.248.694-4.328 1.874-6.05-1.752 1.249-3.891 1.992-6.207 1.992-5.913 0-10.708-4.793-10.708-10.706 0-5.914 4.795-10.71 10.708-10.71 2.313 0 4.449.74 6.2 1.988-1.177-1.721-1.867-3.798-1.867-6.038 0-5.915 4.795-10.708 10.71-10.708 5.913 0 10.709 4.793 10.709 10.708 0 2.238-.689 4.314-1.862 6.031 1.748-1.243 3.881-1.981 6.192-1.981 5.915 0 10.709 4.795 10.709 10.71 0 5.913-4.794 10.706-10.709 10.706zm-14.952-43.87-33.063 33.063 33.062 33.063 33.063-33.062z" fill="#bb1f3e"/></g></svg>